<!-- icon666.com - MILLIONS vector ICONS FREE --><svg id="Layer_1" enable-background="new 0 0 456 456" viewBox="0 0 456 456" xmlns="http://www.w3.org/2000/svg"><g><g><g><path d="m159.038 117.1c.017 13.973 9.189 26.34 22.604 30.248 14.928 4.349 35.999 7.396 59.357 7.396s44.429-3.047 59.357-7.396c13.415-3.908 22.588-16.275 22.604-30.248.021-17.461-14.128-31.627-31.589-31.627h-100.744c-17.461.001-31.61 14.167-31.589 31.627z" fill="#eee"></path></g><g><path d="m273.398 95.474c-21.45 2.657-43.146 2.665-64.598.024l-.199-.024c-15.319 0-27.737-12.418-27.737-27.737 0-15.178 12.201-27.537 27.378-27.732l.36-.005c18.001-.231 32.477-14.881 32.493-32.884l.006-7.116s60.034 36.152 60.034 67.737c0 15.318-12.418 27.737-27.737 27.737z" fill="#eee"></path></g></g><g><g><path d="m80.305 271.769v84.878c0 25.1 71.543 55.224 159.796 55.224s159.796-30.123 159.796-55.224v-84.878z" fill="#eee"></path></g><g><ellipse cx="240.101" cy="271.769" fill="#eee" rx="159.796" ry="45.449"></ellipse></g><g><path d="m104.664 139.711v106.249c0 21.055 60.637 38.124 135.437 38.124s135.437-17.069 135.437-38.124v-106.249z" fill="#eee"></path></g><g><ellipse cx="240" cy="139.711" fill="#eee" rx="135.437" ry="38.124"></ellipse></g><g><g><ellipse cx="228.101" cy="395.837" fill="#e0e0e0" rx="193.899" ry="60.163"></ellipse></g><g><path d="m250.101 441c-107.088 0-193.899-26.936-193.899-60.163 0-5.965 2.812-11.726 8.023-17.167-19.009 9.304-30.023 20.336-30.023 32.167 0 33.227 86.812 60.163 193.899 60.163 87.861 0 162.06-18.134 185.875-42.996-34.376 16.825-94.918 27.996-163.875 27.996z" fill="#c9c9c9"></path></g></g><g><g><path d="m68.305 276.769v84.878c0 25.1 71.543 55.224 159.796 55.224s159.796-30.123 159.796-55.224v-84.878z" fill="#ffbd66"></path></g><g><path d="m248.101 396.871c-27.113 0-52.649-4.268-75.018-10.183-49.932-13.202-84.778-58.271-84.778-109.919h-20v84.878c0 25.1 71.543 55.224 159.796 55.224s159.796-30.123 159.796-55.224v-3.234c-27.264 19.818-79.644 38.458-139.796 38.458z" fill="#f4a64a"></path></g></g><g><g><ellipse cx="228.101" cy="276.769" fill="#ffdcb3" rx="159.796" ry="45.449"></ellipse></g><g><path d="m92.664 144.711v106.249c0 21.055 60.637 38.124 135.437 38.124s135.437-17.069 135.437-38.124v-106.249z" fill="#ffbd66"></path></g><g><path d="m248.101 267.084c-7.502 0-14.862-.283-22.032-.792-63.862-4.534-113.405-57.557-113.405-121.58h-20v106.248c0 21.055 60.637 38.124 135.437 38.124s135.437-17.069 135.437-38.124v-2.054c-23.832 10.905-66.615 18.178-115.437 18.178z" fill="#f4a64a"></path></g></g><g><g><path d="m363.538 145.355h-270.874v70.992c0 31.875 42.98 32.1 42.98.502 0-10.494 8.503-19.001 18.991-19.001 10.489 0 18.991 8.507 18.991 19.001v11.998c0 30.494 37.982 30.494 37.982 0v-1.998c0-24.494 37.982-24.494 37.982 0v1.998c0 30.494 37.983 30.494 37.983 0v-3.624c0-10.494 8.502-19.001 18.991-19.001 10.489 0 18.991 8.507 18.991 19.001v1.997c0 10.494 8.503 19.001 18.992 19.001 10.489 0 18.992-8.507 18.992-19.002z" fill="#99695c"></path></g><g><path d="m92.664 216.346c0 31.875 42.98 32.1 42.98.502 0-10.494 8.503-19.001 18.991-19.001 10.489 0 18.991 8.507 18.991 19.001v11.998c0 30.494 37.982 30.494 37.982 0v-1.998c0-24.494 37.982-24.494 37.982 0v1.998c0 30.494 37.983 30.494 37.983 0v-3.624c0-10.494 8.502-19.001 18.991-19.001s18.991 8.507 18.991 19.001v1.997c0 10.494 8.503 19.001 18.991 19.001 10.489 0 18.992-8.507 18.992-19.002l-.001-80.865h-13.5l.001 80.865c0 3.034-2.464 5.502-5.492 5.502s-5.491-2.468-5.491-5.501v-1.997c0-17.921-14.575-32.501-32.49-32.501-19.882 0-32.924 17.441-32.492 36.125 0 5.692-2.155 9.371-5.491 9.371s-5.491-3.678-5.491-9.37c.573-18.865-13.401-33.869-32.491-33.869s-33.064 15.004-32.491 33.869c0 5.692-2.155 9.37-5.491 9.37-3.335 0-5.491-3.678-5.491-9.37v-11.998c0-17.921-14.576-32.501-32.491-32.501s-32.491 14.58-32.491 32.501c0 9.072-5.458 10.052-7.806 10.052-1.917 0-8.174-.761-8.174-10.554v-70.992h-13.5v70.991z" fill="#895b52"></path></g></g><g><ellipse cx="228" cy="144.711" fill="#ffdcb3" rx="135.437" ry="38.124"></ellipse></g></g><g><g><g><path d="m87.792 386.041c0 14.054 10.47 25.446 23.385 25.446s23.385-11.393 23.385-25.446-10.47-34.848-23.385-34.848-23.385 20.794-23.385 34.848z" fill="#ea2f2f"></path></g><g><path d="m104.792 380.041c0-8.995 4.293-20.743 10.766-28.041-1.42-.517-2.883-.807-4.382-.807-12.915 0-23.385 20.795-23.385 34.848s10.47 25.446 23.385 25.446c5.789 0 11.083-2.294 15.166-6.085-12.056-1.019-21.55-11.98-21.55-25.361z" fill="#cc2929"></path></g></g><g><g><path d="m165.742 406.701c0 14.054 10.47 25.446 23.385 25.446s23.385-11.393 23.385-25.446-10.47-34.848-23.385-34.848-23.385 20.795-23.385 34.848z" fill="#ea2f2f"></path></g><g><path d="m182.742 400.701c0-8.995 4.293-20.743 10.766-28.041-1.42-.517-2.883-.807-4.382-.807-12.915 0-23.385 20.795-23.385 34.848s10.47 25.446 23.385 25.446c5.789 0 11.083-2.294 15.166-6.085-12.056-1.019-21.55-11.98-21.55-25.361z" fill="#cc2929"></path></g></g><g><g><path d="m243.691 406.701c0 14.054 10.47 25.446 23.385 25.446s23.385-11.393 23.385-25.446-10.47-34.848-23.385-34.848-23.385 20.795-23.385 34.848z" fill="#ea2f2f"></path></g><g><path d="m260.691 400.701c0-8.995 4.293-20.743 10.766-28.041-1.42-.517-2.883-.807-4.382-.807-12.915 0-23.385 20.795-23.385 34.848s10.47 25.446 23.385 25.446c5.789 0 11.083-2.294 15.166-6.085-12.056-1.019-21.55-11.98-21.55-25.361z" fill="#cc2929"></path></g></g><g><g><path d="m321.64 386.041c0 14.054 10.47 25.446 23.385 25.446s23.385-11.393 23.385-25.446-10.47-34.848-23.385-34.848-23.385 20.794-23.385 34.848z" fill="#ea2f2f"></path></g><g><path d="m338.64 380.041c0-8.995 4.293-20.743 10.766-28.041-1.42-.517-2.883-.807-4.382-.807-12.915 0-23.385 20.795-23.385 34.848s10.47 25.446 23.385 25.446c5.789 0 11.083-2.294 15.166-6.085-12.056-1.019-21.55-11.98-21.55-25.361z" fill="#cc2929"></path></g></g></g><g><g><g><path d="m146.038 117.1c.017 13.973 9.189 26.34 22.604 30.248 14.928 4.349 35.999 7.396 59.357 7.396s44.429-3.047 59.357-7.396c13.415-3.908 22.588-16.275 22.604-30.248.021-17.461-14.128-31.627-31.589-31.627h-100.744c-17.461.001-31.61 14.167-31.589 31.627z" fill="#8e4339"></path></g></g><g><path d="m188.643 147.348c-13.416-3.908-22.588-16.275-22.604-30.248-.021-17.461 14.128-31.627 31.589-31.627h-20c-17.461 0-31.61 14.166-31.589 31.627.017 13.973 9.189 26.34 22.604 30.248 14.928 4.349 35.999 7.396 59.357 7.396 3.388 0 6.72-.071 10-.194-19.334-.724-36.594-3.483-49.357-7.202z" fill="#66302a"></path></g><g><g><path d="m260.398 95.474c-21.45 2.657-43.146 2.665-64.598.024l-.199-.024c-15.319 0-27.737-12.418-27.737-27.737 0-15.178 12.201-27.537 27.378-27.732l.36-.005c18.001-.231 32.477-14.881 32.493-32.884l.006-7.116s60.034 36.152 60.034 67.737c0 15.318-12.418 27.737-27.737 27.737z" fill="#ffd79a"></path></g><g><path d="m185.865 77.737c0-15.178 12.201-27.537 27.378-27.732l.359-.005c18.001-.231 32.477-14.881 32.493-32.884l.004-4.765c-10.082-7.582-17.998-12.351-17.998-12.351l-.006 7.116c-.017 18.003-14.492 32.653-32.493 32.884l-.359.005c-15.177.195-27.378 12.554-27.378 27.732 0 14.129 10.567 25.782 24.228 27.508-3.892-4.775-6.228-10.868-6.228-17.508z" fill="#f4be7d"></path></g></g></g><g><g><path d="m284.615 148.592c0 14.054 10.47 25.446 23.385 25.446s23.385-11.393 23.385-25.446-10.47-24.848-23.385-24.848-23.385 10.794-23.385 24.848z" fill="#ea2f2f"></path></g><g><path d="m324 167.038c-12.915 0-23.385-11.393-23.385-25.446 0-7.104 2.678-13.373 6.993-17.838-12.733.217-22.993 10.928-22.993 24.838 0 14.054 10.47 25.446 23.385 25.446 6.242 0 11.908-2.666 16.102-7.003-.034 0-.068.003-.102.003z" fill="#cc2929"></path></g></g><g><g><path d="m204.717 156.592c0 14.054 10.47 25.446 23.385 25.446s23.385-11.393 23.385-25.446c0-14.054-10.47-24.848-23.385-24.848s-23.385 10.794-23.385 24.848z" fill="#ea2f2f"></path></g><g><path d="m244.101 175.038c-12.915 0-23.385-11.393-23.385-25.446 0-7.104 2.678-13.373 6.993-17.838-12.733.217-22.993 10.928-22.993 24.838 0 14.054 10.47 25.446 23.385 25.446 6.242 0 11.908-2.666 16.102-7.003-.034 0-.068.003-.102.003z" fill="#cc2929"></path></g></g><g><g><path d="m80.41 56.723c-17.235 9.99-22.203 32.683-10.73 49.009l54.383 77.295 44.236-23.024-40.251-88.105c-8.345-18.139-30.404-25.166-47.638-15.175z" fill="#eee"></path></g><g><path d="m92.68 107.732c-11.473-16.326-6.505-39.019 10.73-49.009 2.624-1.521 5.36-2.642 8.142-3.395-9.606-4.459-21.178-4.381-31.142 1.395-17.234 9.99-22.203 32.683-10.73 49.009l55.359 78.682 9.263-17.456z" fill="#e0e0e0"></path></g><g><path d="m173.357 210.946-6.393 3.706-44.441-32.053c-3.176-2.291-2.938-7.11.449-9.073l36.907-21.394c3.387-1.963 7.663.239 8.051 4.146z" fill="#8ecc3e"></path></g><g><path d="m50.183 54.707c17.142 2.993 32.178 1.078 32.178 1.078s9.112-14.562 13.505-33.34c4.637-19.815-21.72-31.169-32.835-14.125-2.831 4.341-7.382 7.263-12.505 8.03-21.848 3.271-22.105 34.557-.343 38.357z" fill="#7cb236"></path></g><g><path d="m59.183 38.707c-11.022-1.924-16.386-10.9-16.166-19.716-14.013 8.418-11.724 32.417 7.166 35.716 17.142 2.993 32.178 1.078 32.178 1.078s3.921-6.266 7.858-15.877c-3.806.37-16.679 1.305-31.036-1.201z" fill="#6a9e20"></path></g><path d="m173.361 206.809c-.145-.253-.311-.485-.486-.708l-.605-6.094-22.748-16.407c-3.176-2.291-2.938-7.11.449-9.073l18.693-10.836-.736-7.412c-.388-3.907-4.664-6.109-8.051-4.146l-36.907 21.394c-3.387 1.963-3.626 6.782-.449 9.073l39.844 28.737c.132.497.324.986.593 1.454 3.642 6.335 3.089 17.37-2.726 20.741-6.498 3.766-.771 14.317 6.018 10.382 12.212-7.079 13.826-25.428 7.111-37.105z" fill="#75af23"></path></g><g><g><path d="m406.009 70h-32.859c-3.313 0-6-2.687-6-6s2.687-6 6-6h32.858c3.313 0 6 2.687 6 6s-2.686 6-5.999 6z" fill="#e0e0e0"></path></g><g><path d="m366.029 24h-42.853c-3.313 0-6-2.687-6-6s2.687-6 6-6h42.853c3.313 0 6 2.687 6 6s-2.686 6-6 6z" fill="#75af23"></path></g></g><g><ellipse cx="290.46" cy="349.424" fill="#fff" rx="10.875" ry="17.024"></ellipse></g><g><path d="m226.698 366.204c-.298 6.155 2.825 10.99 6.977 10.8 4.151-.19 7.759-5.333 8.057-11.488s-2.825-10.99-6.977-10.8-7.758 5.334-8.057 11.488z" fill="#fff"></path></g></g></svg>