<!-- icon666.com - MILLIONS vector ICONS FREE --><svg viewBox="0 1 495.98364 495" xmlns="http://www.w3.org/2000/svg"><path d="m367.984375 176.492188c.019531 15.078124-10.507813 28.121093-25.253906 31.285156-14.742188 3.164062-29.695313-4.40625-35.867188-18.164063l42.242188-42.242187c11.484375 5.136718 18.878906 16.539062 18.878906 29.121094zm0 0" fill="#d80027"></path><path d="m247.984375 99.773438v73.4375c-1.199219.480468-2.480469.960937-3.761719 1.359374-1.285156.421876-2.59375.769532-3.917968 1.042969-2.734376.578125-5.523438.871094-8.320313.878907-22.089844 0-40-17.910157-40-40 0-22.089844 17.910156-40 40-40 5.5.003906 10.941406 1.121093 16 3.28125zm0 0" fill="#d80027"></path><path d="m56.390625 236.492188c2.855469-46.699219 22.714844-90.734376 55.824219-123.785157l-33.933594-33.933593c-45.085938 44.964843-70.382812 106.042968-70.296875 169.71875h48c0-4 .167969-8 .40625-12zm0 0" fill="#ff9811"></path><path d="m112.222656 112.730469 135.761719 135.761719v-192c-4 0-8 .167968-12 .40625-46.691406 2.863281-90.714844 22.722656-123.761719 55.832031zm55.761719 7.761719c-4.417969 0-8-3.582032-8-8 0-4.417969 3.582031-8 8-8s8 3.582031 8 8c0 4.417968-3.582031 8-8 8zm0 0" fill="#ffeb99"></path><path d="m235.984375 56.898438c4-.238282 8-.40625 12-.40625v-48c-63.667969-.082032-124.742187 25.214843-169.703125 70.296874l33.933594 33.933594c33.046875-33.109375 77.078125-52.964844 123.769531-55.824218zm0 0" fill="#ff9811"></path><path d="m247.984375 56.492188c-4 0-8 .167968-12 .40625 4-.238282 8-.40625 12-.40625zm0 0" fill="#ff9811"></path><path d="m56.390625 236.492188c-.238281 4-.40625 8-.40625 12h40.800781c-.511718-2.636719-.78125-5.316407-.800781-8 0-22.089844 17.910156-40 40-40s40 17.910156 40 40c-.019531 2.683593-.289063 5.363281-.800781 8h72.800781l-135.761719-135.761719c-33.109375 33.046875-52.96875 77.070312-55.832031 123.761719zm71.59375-68c0 8.835937-7.164063 16-16 16s-16-7.164063-16-16c0-8.835938 7.164063-16 16-16s16 7.164062 16 16zm0 0" fill="#ffeb99"></path><path d="m55.984375 248.492188c0-4 .167969-8 .40625-12-.238281 4-.40625 8-.40625 12zm0 0" fill="#ffeb99"></path><path d="m149.753906 278.09375c-1.550781.523438-3.132812.953125-4.738281 1.277344-.65625.152344-1.269531.410156-1.945313.527344-4.6875.832031-9.484374.832031-14.175781 0-.671875-.117188-1.285156-.375-1.941406-.527344-1.605469-.324219-3.1875-.753906-4.738281-1.277344-13.035156-4.792969-22.660156-15.992188-25.429688-29.601562h-40.800781c0 4 .167969 8 .40625 12 2.863281 46.691406 22.722656 90.714843 55.832031 123.757812l28.800782-28.757812c-3.25-5.808594-4.984376-12.34375-5.039063-19 0-22.089844 17.910156-40 40-40 6.652344.042968 13.1875 1.761718 19 5l53-53h-72.800781c-2.769532 13.609374-12.394532 24.808593-25.429688 29.601562zm-45.769531 42.398438c-4.417969 0-8-3.582032-8-8 0-4.417969 3.582031-8 8-8s8 3.582031 8 8c0 4.417968-3.582031 8-8 8zm0 0" fill="#ffeb99"></path><path d="m56.390625 260.492188c-.238281-4-.40625-8-.40625-12h-48c-.082031 63.667968 25.214844 124.742187 70.296875 169.703124l33.933594-33.933593c-33.105469-33.050781-52.964844-77.078125-55.824219-123.769531zm0 0" fill="#ff9811"></path><path d="m56.390625 260.492188c-.238281-4-.40625-8-.40625-12 0 4 .167969 8 .40625 12zm0 0" fill="#ff9811"></path><path d="m383.753906 112.722656c33.105469 33.050782 52.964844 77.078125 55.824219 123.769532.238281 4 .40625 7.953124.40625 12h48c.082031-63.667969-25.21875-124.742188-70.296875-169.703126zm0 0" fill="#ff9811"></path><path d="m439.578125 260.492188c-2.855469 46.699218-22.714844 90.734374-55.824219 123.785156l33.933594 33.933594c45.082031-44.964844 70.382812-106.046876 70.296875-169.71875h-48c0 4-.167969 8-.40625 12zm0 0" fill="#ff9811"></path><path d="m235.984375 440.082031c-46.699219-2.851562-90.734375-22.710937-123.785156-55.820312l-33.933594 33.933593c44.964844 45.082032 106.046875 70.382813 169.71875 70.296876v-48c-4 0-8-.167969-12-.410157zm0 0" fill="#ff9811"></path><path d="m259.984375 440.082031c-4 .242188-8 .410157-12 .410157v48c63.667969.082031 124.742187-25.21875 169.703125-70.296876l-33.933594-33.933593c-33.046875 33.105469-77.078125 52.964843-123.769531 55.820312zm0 0" fill="#ff9811"></path><path d="m302.382812 273.796875c3.136719-.828125 6.359376-1.265625 9.601563-1.304687 22.089844 0 40 17.910156 40 40-.039063 3.242187-.476563 6.464843-1.304687 9.601562-1.722657 7.046875-5.3125 13.5-10.398438 18.679688l43.4375 43.4375c33.109375-33.027344 52.980469-77.039063 55.859375-123.71875.238281-4 .40625-8 .40625-12h-192l35.679687 35.679687c5.191407-5.082031 11.660157-8.667969 18.71875-10.375zm89.601563 6.695313c8.835937 0 16 7.164062 16 16 0 8.835937-7.164063 16-16 16s-16-7.164063-16-16c0-8.835938 7.164063-16 16-16zm0 0" fill="#ffeb99"></path><path d="m439.984375 248.492188c0 4-.167969 8-.40625 12 .238281-4 .40625-8 .40625-12zm0 0" fill="#ffeb99"></path><path d="m439.578125 236.492188c-2.863281-46.691407-22.722656-90.714844-55.832031-123.761719l-135.761719 135.761719h192c0-4-.167969-8-.40625-12zm-39.59375-12c-4.417969 0-8-3.582032-8-8 0-4.417969 3.582031-8 8-8s8 3.582031 8 8c0 4.417968-3.582031 8-8 8zm0 0" fill="#ffeb99"></path><path d="m439.578125 236.492188c.238281 4 .40625 7.953124.40625 12 0-4-.167969-8-.40625-12zm0 0" fill="#ffeb99"></path><path d="m259.984375 440.082031c46.691406-2.859375 90.714844-22.71875 123.761719-55.832031l-43.441406-43.4375c-5.175782 5.085938-11.632813 8.679688-18.679688 10.398438-3.148438.824218-6.386719 1.253906-9.640625 1.28125-22.089844 0-40-17.910157-40-40 .035156-3.242188.464844-6.464844 1.289063-9.601563 1.710937-7.070313 5.304687-13.542969 10.398437-18.734375l-35.6875-35.664062v192c4 0 8-.167969 12-.410157zm76-63.589843c4.417969 0 8 3.582031 8 8 0 4.417968-3.582031 8-8 8s-8-3.582032-8-8c0-4.417969 3.582031-8 8-8zm-56 0c8.835937 0 16 7.164062 16 16 0 8.835937-7.164063 16-16 16s-16-7.164063-16-16c0-8.835938 7.164063-16 16-16zm0 0" fill="#ffeb99"></path><path d="m259.984375 440.082031c-4 .242188-8 .410157-12 .410157 4 0 8-.167969 12-.410157zm0 0" fill="#ffeb99"></path><path d="m209.761719 315.292969c.117187.183593.269531.351562.382812.542969.238281.382812.40625.800781.632813 1.191406 3.40625 5.921875 5.199218 12.632812 5.207031 19.464844 0 22.089843-17.910156 40-40 40-6.832031-.007813-13.542969-1.800782-19.464844-5.207032-.390625-.226562-.800781-.394531-1.191406-.632812-.191406-.113282-.359375-.265625-.542969-.382813-5.773437-3.6875-10.519531-8.769531-13.800781-14.777343l-28.800781 28.757812c33.054687 33.121094 77.097656 52.984375 123.800781 55.832031 4 .242188 7.953125.410157 12 .410157v-192l-53 53c6.007813 3.28125 11.089844 8.027343 14.777344 13.800781zm-1.777344 93.199219c-4.417969 0-8-3.582032-8-8 0-4.417969 3.582031-8 8-8s8 3.582031 8 8c0 4.417968-3.582031 8-8 8zm0 0" fill="#ffeb99"></path><path d="m247.984375 440.492188c-4 0-8-.167969-12-.410157 4 .242188 8 .410157 12 .410157zm0 0" fill="#ffeb99"></path><path d="m175.183594 248.492188h-78.398438c2.769532 13.605468 12.390625 24.808593 25.421875 29.601562 1.550781.523438 3.132813.953125 4.738281 1.277344.65625.152344 1.269532.410156 1.941407.527344 4.691406.832031 9.488281.832031 14.175781 0 .671875-.117188 1.289062-.375 1.945312-.527344 1.605469-.324219 3.1875-.753906 4.738282-1.277344 13.035156-4.789062 22.664062-15.992188 25.4375-29.601562zm0 0" fill="#d80027"></path><path d="m149.753906 278.09375c-1.550781.523438-3.132812.953125-4.738281 1.277344 1.605469-.324219 3.1875-.753906 4.738281-1.277344zm0 0" fill="#d80027"></path><path d="m135.984375 280.492188c-2.375 0-4.75-.210938-7.089844-.625 2.339844.414062 4.714844.625 7.089844.625zm0 0" fill="#d80027"></path><path d="m126.953125 279.339844c-1.605469-.328125-3.1875-.753906-4.738281-1.28125 1.550781.527344 3.132812.953125 4.738281 1.28125zm0 0" fill="#d80027"></path><path d="m143.070312 279.867188c-2.335937.414062-4.710937.625-7.085937.625 2.375 0 4.75-.210938 7.085937-.625zm0 0" fill="#d80027"></path><path d="m175.183594 248.492188c3.226562-15.894532-3.460938-32.160157-16.933594-41.191407-13.472656-9.027343-31.0625-9.027343-44.53125 0-13.472656 9.03125-20.160156 25.296875-16.933594 41.191407zm0 0" fill="#d80027"></path><path d="m175.984375 240.492188c0-22.089844-17.910156-40-40-40 22.089844 0 40 17.910156 40 40zm0 0" fill="#d80027"></path><path d="m135.984375 200.492188c-22.089844 0-40 17.910156-40 40 0-22.089844 17.910156-40 40-40zm0 0" fill="#d80027"></path><path d="m407.984375 296.492188c0 8.835937-7.164063 16-16 16s-16-7.164063-16-16c0-8.835938 7.164063-16 16-16s16 7.164062 16 16zm0 0" fill="#ff9811"></path><path d="m407.984375 296.492188c0-8.835938-7.164063-16-16-16 8.824219.027343 15.972656 7.175781 16 16zm0 0" fill="#ff9811"></path><path d="m391.984375 312.492188c8.835937 0 16-7.164063 16-16-.027344 8.824218-7.175781 15.972656-16 16zm0 0" fill="#ff9811"></path><path d="m391.984375 280.492188c-8.835937 0-16 7.164062-16 16 .027344-8.824219 7.175781-15.972657 16-16zm0 0" fill="#ff9811"></path><path d="m391.984375 312.492188c-8.824219-.027344-15.972656-7.175782-16-16 0 8.835937 7.164063 16 16 16zm0 0" fill="#ff9811"></path><path d="m295.984375 392.492188c0 8.835937-7.164063 16-16 16s-16-7.164063-16-16c0-8.835938 7.164063-16 16-16s16 7.164062 16 16zm0 0" fill="#ff9811"></path><path d="m295.984375 392.492188c0-8.835938-7.164063-16-16-16 8.824219.027343 15.972656 7.175781 16 16zm0 0" fill="#ff9811"></path><path d="m279.984375 408.492188c8.835937 0 16-7.164063 16-16-.027344 8.824218-7.175781 15.972656-16 16zm0 0" fill="#ff9811"></path><path d="m279.984375 408.492188c-8.824219-.027344-15.972656-7.175782-16-16 0 8.835937 7.164063 16 16 16zm0 0" fill="#ff9811"></path><path d="m279.984375 376.492188c-8.835937 0-16 7.164062-16 16 .027344-8.824219 7.175781-15.972657 16-16zm0 0" fill="#ff9811"></path><g fill="#acabb1"><path d="m215.984375 400.492188c0 4.417968-3.582031 8-8 8s-8-3.582032-8-8c0-4.417969 3.582031-8 8-8s8 3.582031 8 8zm0 0"></path><path d="m207.984375 392.492188c-4.417969 0-8 3.582031-8 8 0-4.417969 3.582031-8 8-8zm0 0"></path><path d="m199.984375 400.492188c0 4.417968 3.582031 8 8 8-4.417969 0-8-3.582032-8-8zm0 0"></path><path d="m207.984375 392.492188c4.417969 0 8 3.582031 8 8 0-4.417969-3.582031-8-8-8zm0 0"></path><path d="m207.984375 408.492188c4.417969 0 8-3.582032 8-8 0 4.417968-3.582031 8-8 8zm0 0"></path><path d="m111.984375 312.492188c0 4.417968-3.582031 8-8 8s-8-3.582032-8-8c0-4.417969 3.582031-8 8-8s8 3.582031 8 8zm0 0"></path><path d="m95.984375 312.492188c0 4.417968 3.582031 8 8 8-4.417969 0-8-3.582032-8-8zm0 0"></path><path d="m103.984375 304.492188c-4.417969 0-8 3.582031-8 8 0-4.417969 3.582031-8 8-8zm0 0"></path><path d="m103.984375 320.492188c4.417969 0 8-3.582032 8-8 0 4.417968-3.582031 8-8 8zm0 0"></path><path d="m103.984375 304.492188c4.417969 0 8 3.582031 8 8 0-4.417969-3.582031-8-8-8zm0 0"></path><path d="m175.984375 112.492188c0 4.417968-3.582031 8-8 8s-8-3.582032-8-8c0-4.417969 3.582031-8 8-8s8 3.582031 8 8zm0 0"></path><path d="m167.984375 104.492188c4.417969 0 8 3.582031 8 8 0-4.417969-3.582031-8-8-8zm0 0"></path><path d="m167.984375 120.492188c4.417969 0 8-3.582032 8-8 0 4.417968-3.582031 8-8 8zm0 0"></path><path d="m159.984375 112.492188c0 4.417968 3.582031 8 8 8-4.417969 0-8-3.582032-8-8zm0 0"></path><path d="m167.984375 104.492188c-4.417969 0-8 3.582031-8 8 0-4.417969 3.582031-8 8-8zm0 0"></path><path d="m407.984375 216.492188c0 4.417968-3.582031 8-8 8s-8-3.582032-8-8c0-4.417969 3.582031-8 8-8s8 3.582031 8 8zm0 0"></path><path d="m399.984375 208.492188c-4.417969 0-8 3.582031-8 8 0-4.417969 3.582031-8 8-8zm0 0"></path><path d="m407.984375 216.492188c0-4.417969-3.582031-8-8-8 4.417969 0 8 3.582031 8 8zm0 0"></path><path d="m399.984375 224.492188c4.417969 0 8-3.582032 8-8 0 4.417968-3.582031 8-8 8zm0 0"></path><path d="m391.984375 216.492188c0 4.417968 3.582031 8 8 8-4.417969 0-8-3.582032-8-8zm0 0"></path><path d="m343.984375 384.492188c0 4.417968-3.582031 8-8 8s-8-3.582032-8-8c0-4.417969 3.582031-8 8-8s8 3.582031 8 8zm0 0"></path><path d="m343.984375 384.492188c0-4.417969-3.582031-8-8-8 4.417969 0 8 3.582031 8 8zm0 0"></path><path d="m335.984375 376.492188c-4.417969 0-8 3.582031-8 8 0-4.417969 3.582031-8 8-8zm0 0"></path><path d="m335.984375 392.492188c4.417969 0 8-3.582032 8-8 0 4.417968-3.582031 8-8 8zm0 0"></path><path d="m335.984375 392.492188c-4.417969 0-8-3.582032-8-8 0 4.417968 3.582031 8 8 8zm0 0"></path></g><path d="m127.984375 168.492188c0 8.835937-7.164063 16-16 16s-16-7.164063-16-16c0-8.835938 7.164063-16 16-16s16 7.164062 16 16zm0 0" fill="#ff9811"></path><path d="m95.984375 168.492188c0 8.835937 7.164063 16 16 16-8.824219-.027344-15.972656-7.175782-16-16zm0 0" fill="#ff9811"></path><path d="m111.984375 152.492188c-8.835937 0-16 7.164062-16 16 .027344-8.824219 7.175781-15.972657 16-16zm0 0" fill="#ff9811"></path><path d="m127.984375 168.492188c0-8.835938-7.164063-16-16-16 8.824219.027343 15.972656 7.175781 16 16zm0 0" fill="#ff9811"></path><path d="m111.984375 184.492188c8.835937 0 16-7.164063 16-16-.027344 8.824218-7.175781 15.972656-16 16zm0 0" fill="#ff9811"></path><path d="m194.945312 301.53125-53.921874 53.921875c3.257812 6.023437 7.992187 11.121094 13.761718 14.816406.183594.117188.351563.269531.542969.382813.382813.238281.800781.40625 1.191406.632812 5.921875 3.402344 12.632813 5.199219 19.464844 5.207032 22.089844 0 40-17.910157 40-40-.007813-6.832032-1.804687-13.542969-5.207031-19.464844-.226563-.390625-.394532-.800782-.632813-1.191406-.113281-.191407-.265625-.359376-.382812-.542969-3.695313-5.769531-8.792969-10.503907-14.816407-13.761719zm0 0" fill="#d80027"></path><path d="m210.144531 315.835938c.238281.382812.40625.800781.632813 1.191406-.226563-.390625-.394532-.808594-.632813-1.191406zm0 0" fill="#d80027"></path><path d="m156.519531 371.285156c-.390625-.226562-.800781-.394531-1.191406-.632812.382813.238281.800781.40625 1.191406.632812zm0 0" fill="#d80027"></path><path d="m175.984375 376.492188c22.089844 0 40-17.910157 40-40 0 22.089843-17.910156 40-40 40zm0 0" fill="#d80027"></path><path d="m209.761719 315.292969c-3.6875-5.773438-8.769531-10.519531-14.777344-13.800781v.039062c6.011719 3.261719 11.09375 7.996094 14.777344 13.761719zm0 0" fill="#d80027"></path><path d="m154.785156 370.269531c-5.769531-3.695312-10.503906-8.792969-13.761718-14.816406v.039063c3.269531 6.003906 8.003906 11.085937 13.761718 14.777343zm0 0" fill="#d80027"></path><path d="m194.945312 301.53125c-5.789062-3.269531-12.316406-5.003906-18.960937-5.039062-22.089844 0-40 17.910156-40 40 .035156 6.644531 1.769531 13.171874 5.039063 18.960937zm0 0" fill="#d80027"></path><path d="m135.984375 336.492188c.042969 6.652343 1.761719 13.1875 5 19v-.039063c-3.253906-5.792969-4.976563-12.320313-5-18.960937zm0 0" fill="#d80027"></path><path d="m194.984375 301.492188c-5.8125-3.238282-12.347656-4.957032-19-5 6.644531.035156 13.171875 1.769531 18.960937 5.039062zm0 0" fill="#d80027"></path><path d="m175.984375 296.492188c-22.089844 0-40 17.910156-40 40 0-22.089844 17.910156-40 40-40zm0 0" fill="#d80027"></path><path d="m283.695312 284.203125c-5.105468 5.171875-8.699218 11.640625-10.398437 18.703125-.828125 3.128906-1.269531 6.347656-1.3125 9.585938 0 22.089843 17.910156 40 40 40 3.242187-.039063 6.464844-.476563 9.601563-1.304688 7.042968-1.707031 13.488281-5.304688 18.644531-10.398438zm0 0" fill="#d80027"></path><path d="m321.625 351.1875c-3.148438.832031-6.386719 1.269531-9.640625 1.304688 3.253906-.035157 6.492187-.472657 9.640625-1.304688zm0 0" fill="#d80027"></path><path d="m271.984375 312.492188c.035156-3.242188.464844-6.464844 1.289063-9.601563-.824219 3.136719-1.253907 6.359375-1.289063 9.601563zm0 0" fill="#d80027"></path><path d="m271.984375 312.492188c0 22.089843 17.910156 40 40 40-22.089844 0-40-17.910157-40-40zm0 0" fill="#d80027"></path><path d="m340.273438 340.78125c5.09375-5.15625 8.691406-11.605469 10.398437-18.648438.832031-3.148437 1.273437-6.386718 1.3125-9.640624 0-22.089844-17.910156-40-40-40-3.242187.039062-6.464844.476562-9.601563 1.304687-7.042968 1.707031-13.488281 5.304687-18.648437 10.398437zm0 0" fill="#d80027"></path><path d="m302.382812 273.796875c3.136719-.828125 6.359376-1.265625 9.601563-1.304687-3.242187.039062-6.464844.476562-9.601563 1.304687zm0 0" fill="#d80027"></path><path d="m351.984375 312.492188c-.039063 3.242187-.476563 6.464843-1.304687 9.601562.828124-3.136719 1.265624-6.359375 1.304687-9.601562zm0 0" fill="#d80027"></path><path d="m351.984375 312.492188c0-22.089844-17.910156-40-40-40 22.089844 0 40 17.910156 40 40zm0 0" fill="#d80027"></path><path d="m423.703125 423.308594c96.515625-96.835938 96.351563-253.542969-.359375-350.175782-3.125-3.125-8.1875-3.125-11.3125 0-.054688.054688-.070312.128907-.117188.183594l-33.683593 33.679688-.125.078125c-.042969 0-.050781.097656-.089844.136719l-122.03125 121.96875v-220.6875c0-4.417969-3.582031-8-8-8-65.550781-.039063-128.429687 25.957031-174.816406 72.273437-.1875.109375-.371094.234375-.542969.367187-.128906.175782-.25.355469-.359375.542969-96.355469 96.617188-96.355469 252.984375 0 349.601563.109375.1875.230469.367187.359375.542968.171875.132813.355469.253907.542969.367188 96.621093 96.34375 252.980469 96.34375 349.601562 0 .1875-.113281.367188-.234375.542969-.367188.140625-.164062.269531-.335937.390625-.511718zm-407.519531-166.816406h32c1.867187 47.472656 20.636718 92.71875 52.929687 127.566406l-22.617187 22.617187c-38.277344-40.859375-60.421875-94.226562-62.3125-150.183593zm62.3125-166.183594 22.617187 22.617187c-32.292969 34.847657-51.0625 80.09375-52.929687 127.566407h-32c1.890625-55.957032 24.035156-109.324219 62.3125-150.183594zm221.3125 117.664062c11.753906 13.570313 30.105468 19.441406 47.554687 15.210938 17.449219-4.230469 31.074219-17.855469 35.304688-35.304688 4.234375-17.445312-1.632813-35.796875-15.203125-47.554687l16-16c29.3125 31.789062 46.371094 72.960937 48.128906 116.167969h-164.296875zm56.328125-56.320312c9.609375 7.660156 13.980469 20.148437 11.25 32.128906-2.730469 11.984375-12.082031 21.34375-24.0625 24.085938-11.980469 2.742187-24.46875-1.621094-32.140625-11.222657zm61.449219-61.417969c38.332031 40.847656 60.449218 94.269531 62.207031 150.257813h-32c-1.765625-47.503907-20.527344-92.796876-52.871094-127.632813zm-188.914063 150.257813h-44.6875c0-26.511719-21.492187-48-48-48-26.511719 0-48 21.488281-48 48h-23.800781c1.851562-43.230469 18.9375-84.410157 48.234375-116.257813zm-124.6875 0c0-17.671876 14.328125-32 32-32s32 14.328124 32 32zm59.550781 16c-5.644531 9.894531-16.160156 16.003906-27.550781 16.003906s-21.90625-6.109375-27.550781-16.003906zm-72.75 0c6.75 19.175781 24.867188 32.003906 45.199219 32.003906s38.449219-12.828125 45.199219-32.003906h47.488281l-35.304687 35.304687c-17.726563-6.949219-37.886719-2.738281-51.351563 10.726563-13.464844 13.464843-17.675781 33.625-10.726563 51.351562l-18.871093 18.871094c-29.296875-31.84375-46.382813-73.023438-48.234375-116.253906zm117.199219 80c.054687 13.554687-8.46875 25.660156-21.246094 30.175781-12.78125 4.515625-27.019531.453125-35.488281-10.128907l44.796875-44.800781c7.523437 6.019531 11.910156 15.121094 11.9375 24.753907zm-63.566406 4.253906c-.242188-1.40625-.386719-2.828125-.433594-4.253906 0-17.671876 14.328125-32 32-32 1.425781.046874 2.847656.191406 4.257813.433593zm-4.59375 27.203125c11.753906 13.554687 30.09375 19.414062 47.53125 15.179687 17.4375-4.230468 31.050781-17.84375 35.28125-35.28125 4.234375-17.4375-1.625-35.777344-15.179688-47.53125l32.527344-32.511718v164.488281c-43.230469-1.851563-84.410156-18.9375-116.257813-48.234375zm116.160156 24.542969v-124.6875l16.917969 16.917968c-13.617188 19.0625-11.457032 45.175782 5.109375 61.742188 16.566406 16.566406 42.679687 18.726562 61.742187 5.105468l32.488282 32.488282c-31.847657 29.296875-73.027344 46.382812-116.257813 48.234375zm83.464844-63.847657-43.617188-43.617187c4.875-2.941406 10.457031-4.507813 16.152344-4.535156 17.671875 0 32 14.328124 32 32-.027344 5.695312-1.59375 11.273437-4.535156 16.152343zm-11.3125 11.3125c-4.875 2.941407-10.457031 4.507813-16.152344 4.535157-17.671875 0-32-14.328126-32-32 .027344-5.695313 1.59375-11.277344 4.535156-16.152344zm22.925781.304688c13.621094-19.0625 11.460938-45.175781-5.105469-61.742188-16.566406-16.566406-42.679687-18.726562-61.742187-5.109375l-16.917969-16.917968h164.488281c-1.851562 43.230468-18.9375 84.410156-48.234375 116.253906zm-227.335938-227.335938c31.847657-29.296875 73.027344-46.382812 116.257813-48.234375v24.511719c-18.855469-3.292969-37.867187 4.929687-48.378906 20.929687-10.507813 16-10.507813 36.710938 0 52.710938 10.511719 15.996094 29.523437 24.222656 48.378906 20.929688v45.40625zm116.257813 54.4375c-13.015625 3.558594-26.863281-1.429687-34.617187-12.46875-7.757813-11.039062-7.757813-25.757812 0-36.796875 7.753906-11.039062 21.601562-16.027344 34.617187-12.46875zm0-118.671875c-47.46875 1.867188-92.710937 20.632813-127.558594 52.921875l-22.617187-22.617187c40.855468-38.277344 94.222656-60.417969 150.175781-62.304688zm-127.558594 346.679688c34.847657 32.289062 80.089844 51.054687 127.558594 52.921875v32c-55.953125-1.886719-109.320313-24.027344-150.175781-62.304688zm143.558594 52.921875c47.46875-1.867188 92.710937-20.632813 127.558594-52.921875l22.617187 22.617187c-40.855468 38.277344-94.222656 60.417969-150.175781 62.304688zm138.871094-64.234375c32.292969-34.847656 51.0625-80.09375 52.929687-127.566406h32c-1.890625 55.957031-24.035156 109.324218-62.3125 150.183593zm0 0"></path><path d="m391.984375 272.492188c-13.253906 0-24 10.746093-24 24 0 13.253906 10.746094 24 24 24s24-10.746094 24-24c0-13.253907-10.746094-24-24-24zm0 32c-4.417969 0-8-3.582032-8-8 0-4.417969 3.582031-8 8-8s8 3.582031 8 8c0 4.417968-3.582031 8-8 8zm0 0"></path><path d="m279.984375 416.492188c13.253906 0 24-10.746094 24-24 0-13.253907-10.746094-24-24-24s-24 10.746093-24 24c0 13.253906 10.746094 24 24 24zm0-32c4.417969 0 8 3.582031 8 8 0 4.417968-3.582031 8-8 8s-8-3.582032-8-8c0-4.417969 3.582031-8 8-8zm0 0"></path><path d="m223.984375 400.492188c0 8.835937-7.164063 16-16 16s-16-7.164063-16-16c0-8.835938 7.164063-16 16-16s16 7.164062 16 16zm0 0"></path><path d="m119.984375 312.492188c0 8.835937-7.164063 16-16 16s-16-7.164063-16-16c0-8.835938 7.164063-16 16-16s16 7.164062 16 16zm0 0"></path><path d="m183.984375 112.492188c0 8.835937-7.164063 16-16 16s-16-7.164063-16-16c0-8.835938 7.164063-16 16-16s16 7.164062 16 16zm0 0"></path><path d="m415.984375 216.492188c0 8.835937-7.164063 16-16 16s-16-7.164063-16-16c0-8.835938 7.164063-16 16-16s16 7.164062 16 16zm0 0"></path><path d="m351.984375 384.492188c0 8.835937-7.164063 16-16 16s-16-7.164063-16-16c0-8.835938 7.164063-16 16-16s16 7.164062 16 16zm0 0"></path><path d="m111.984375 192.492188c13.253906 0 24-10.746094 24-24 0-13.253907-10.746094-24-24-24s-24 10.746093-24 24c0 13.253906 10.746094 24 24 24zm0-32c4.417969 0 8 3.582031 8 8 0 4.417968-3.582031 8-8 8s-8-3.582032-8-8c0-4.417969 3.582031-8 8-8zm0 0"></path><path d="m322.601562 71.332031c4.015626 1.835938 8.757813.070313 10.597657-3.945312l21.050781-46.007813c1.277344-2.609375 1.035156-5.710937-.628906-8.09375-1.664063-2.382812-4.488282-3.675781-7.382813-3.378906-2.890625.300781-5.394531 2.144531-6.535156 4.816406l-21.046875 46.007813c-1.835938 4.019531-.070312 8.761719 3.945312 10.601562zm0 0"></path><path d="m349.152344 87.484375c2.257812 3.800781 7.167968 5.050781 10.96875 2.792969l34.398437-20.441406c2.535157-1.421876 4.101563-4.105469 4.09375-7.011719-.011719-2.90625-1.601562-5.578125-4.148437-6.980469-2.546875-1.398438-5.652344-1.308594-8.113282.238281l-34.367187 20.410157c-1.839844 1.078124-3.171875 2.84375-3.703125 4.90625s-.21875 4.253906.871094 6.085937zm0 0"></path><path d="m287.007812 59.820312h.726563c4.402344-.398437 7.648437-4.289062 7.25-8.6875l-3.664063-40.625c-.453124-4.371093-4.304687-7.589843-8.6875-7.246093-4.402343.394531-7.644531 4.285156-7.25 8.6875l3.664063 40.621093c.390625 4.109376 3.835937 7.246094 7.960937 7.25zm0 0"></path></svg>