<!-- icon666.com - MILLIONS vector ICONS FREE --><svg xmlns="http://www.w3.org/2000/svg" version="1.1" viewBox="-96 0 464 464"><g id="surface1"><path d="M 36.878906 336 L 48 464 L 136 464 L 136 336 Z M 36.878906 336 " style=" stroke:none;fill-rule:nonzero;fill:rgb(45.882353%,29.803922%,16.078431%);fill-opacity:1;"></path><path d="M 136 464 L 224 464 L 235.121094 336 L 136 336 Z M 136 464 " style=" stroke:none;fill-rule:nonzero;fill:rgb(56.862745%,43.921569%,32.941176%);fill-opacity:1;"></path><path d="M 136 96 L 16 96 L 24.320312 192 L 136 192 Z M 136 96 " style=" stroke:none;fill-rule:nonzero;fill:rgb(45.882353%,29.803922%,16.078431%);fill-opacity:1;"></path><path d="M 136 96 L 136 192 L 247.679688 192 L 256 96 Z M 136 96 " style=" stroke:none;fill-rule:nonzero;fill:rgb(56.862745%,43.921569%,32.941176%);fill-opacity:1;"></path><path d="M 136 96 L 272 96 L 272 64 L 136 64 Z M 136 96 " style=" stroke:none;fill-rule:nonzero;fill:rgb(72.941176%,58.823529%,45.098039%);fill-opacity:1;"></path><path d="M 136 64 L 0 64 L 0 96 L 136 96 Z M 136 64 " style=" stroke:none;fill-rule:nonzero;fill:rgb(66.27451%,48.627451%,31.372549%);fill-opacity:1;"></path><path d="M 264 64 L 248 0 L 136 0 L 136 64 Z M 264 64 " style=" stroke:none;fill-rule:nonzero;fill:rgb(56.862745%,43.921569%,32.941176%);fill-opacity:1;"></path><path d="M 136 0 L 24 0 L 8 64 L 136 64 Z M 136 0 " style=" stroke:none;fill-rule:nonzero;fill:rgb(45.882353%,29.803922%,16.078431%);fill-opacity:1;"></path><path d="M 136 224 C 158.089844 224 176 241.910156 176 264 C 176 286.089844 158.089844 304 136 304 L 136 336 L 248 336 L 264 192 L 136 192 Z M 136 224 " style=" stroke:none;fill-rule:nonzero;fill:rgb(100%,91.372549%,56.078431%);fill-opacity:1;"></path><path d="M 136 304 C 113.910156 304 96 286.089844 96 264 C 96 241.910156 113.910156 224 136 224 L 136 192 L 8 192 L 24 336 L 136 336 Z M 136 304 " style=" stroke:none;fill-rule:nonzero;fill:rgb(100%,85.490196%,26.666667%);fill-opacity:1;"></path><path d="M 96 264 C 96 286.089844 113.910156 304 136 304 L 136 224 C 113.910156 224 96 241.910156 96 264 Z M 96 264 " style=" stroke:none;fill-rule:nonzero;fill:rgb(100%,68.627451%,27.45098%);fill-opacity:1;"></path><path d="M 176 264 C 176 241.910156 158.089844 224 136 224 L 136 304 C 158.089844 304 176 286.089844 176 264 Z M 176 264 " style=" stroke:none;fill-rule:nonzero;fill:rgb(100%,74.901961%,41.960784%);fill-opacity:1;"></path></g></svg>